<svg width="1440" height="900" viewBox="0 0 1440 900" fill="none" xmlns="http://www.w3.org/2000/svg">
<rect width="1440" height="900" rx="50" fill="#2D69FF"/>
<path d="M950.091 363.648L984.822 339.125C987.074 337.53 989.847 336.935 992.535 337.459C995.216 337.983 997.583 339.594 999.123 341.927L1052.31 422.763C1053.85 425.104 1054.42 427.977 1053.92 430.754C1053.41 433.54 1051.86 435.992 1049.6 437.587L1014.87 462.109C1012.61 463.704 1009.84 464.3 1007.16 463.776C1004.48 463.252 1002.1 461.641 1000.56 459.308L947.379 378.472C945.847 376.131 945.265 373.258 945.771 370.48C946.284 367.703 947.831 365.243 950.091 363.648Z" fill="white"/>
<path d="M934.614 470.136L969.344 445.614C971.596 444.019 974.369 443.423 977.058 443.947C979.739 444.471 982.106 446.082 983.646 448.415L1036.83 529.251C1038.37 531.592 1038.94 534.465 1038.44 537.243C1037.93 540.028 1036.38 542.48 1034.12 544.075L999.395 568.598C997.135 570.193 994.362 570.788 991.681 570.264C989 569.74 986.625 568.129 985.086 565.796L931.902 484.96C930.37 482.619 929.788 479.746 930.293 476.969C930.806 474.191 932.354 471.731 934.614 470.136Z" fill="white"/>
<path d="M866.502 366.777L901.233 342.254C903.485 340.659 906.258 340.064 908.947 340.588C911.628 341.112 913.995 342.723 915.534 345.056L968.718 425.892C970.258 428.233 970.832 431.106 970.327 433.883C969.821 436.669 968.266 439.121 966.006 440.716L931.283 465.238C929.024 466.833 926.251 467.429 923.57 466.905C920.889 466.381 918.514 464.77 916.974 462.437L863.791 381.601C862.259 379.26 861.676 376.387 862.182 373.609C862.695 370.832 864.242 368.372 866.502 366.777Z" fill="white"/>
<path d="M851.03 473.275L885.76 448.752C888.012 447.157 890.785 446.562 893.474 447.086C896.155 447.61 898.522 449.221 900.062 451.554L953.245 532.39C954.785 534.731 955.36 537.604 954.854 540.381C954.348 543.167 952.793 545.619 950.534 547.214L915.811 571.736C913.551 573.331 910.778 573.927 908.097 573.403C905.416 572.879 903.041 571.268 901.502 568.935L848.318 488.099C846.786 485.758 846.204 482.885 846.709 480.107C847.222 477.33 848.77 474.87 851.03 473.275Z" fill="white"/>
<path d="M1033.69 360.511L1068.42 335.989C1070.67 334.394 1073.44 333.798 1076.13 334.322C1078.81 334.846 1081.18 336.457 1082.72 338.79L1135.9 419.626C1137.44 421.967 1138.02 424.84 1137.51 427.618C1137.01 430.403 1135.45 432.855 1133.19 434.45L1098.47 458.973C1096.21 460.568 1093.44 461.163 1090.76 460.639C1088.07 460.115 1085.7 458.504 1084.16 456.171L1030.98 375.335C1029.44 372.994 1028.86 370.121 1029.37 367.344C1029.88 364.566 1031.43 362.106 1033.69 360.511Z" fill="white"/>
<path d="M1018.2 467.027L1052.93 442.504C1055.18 440.909 1057.96 440.314 1060.65 440.838C1063.33 441.362 1065.69 442.973 1067.23 445.306L1120.42 526.142C1121.96 528.483 1122.53 531.356 1122.03 534.133C1121.52 536.919 1119.97 539.371 1117.71 540.966L1082.98 565.488C1080.72 567.083 1077.95 567.679 1075.27 567.155C1072.59 566.631 1070.21 565.02 1068.67 562.687L1015.49 481.851C1013.96 479.51 1013.38 476.637 1013.88 473.859C1014.39 471.082 1015.94 468.622 1018.2 467.027Z" fill="white"/>
<path d="M370.147 422.501H360.888C354.889 418.849 351.368 413.763 349.803 405.938L346.021 417.154C342.63 419.11 336.11 421.066 329.98 421.066C316.418 421.066 307.941 411.416 307.941 398.375C307.941 388.072 313.027 376.596 329.198 370.467L348.89 362.903V352.861H363.366V391.072C363.366 396.418 364.539 401.244 370.147 404.373V422.501ZM333.241 384.942C325.547 387.42 320.852 390.55 320.852 395.114C320.852 399.939 325.938 402.417 332.589 402.417C337.283 402.417 343.413 401.244 349.02 399.548C348.89 397.853 348.89 396.027 348.89 394.201V379.726L333.241 384.942ZM360.861 404.504L370.121 404.373C377.945 408.677 394.507 410.372 411.852 410.372C432.979 410.372 453.975 408.547 474.189 402.287C473.928 400.461 473.797 398.375 473.797 396.288V378.813H489.447V393.941C489.447 403.721 494.793 404.765 503.27 404.765V419.762C503.27 423.544 501.314 425.5 497.532 425.5C486.969 425.5 478.101 421.588 474.971 407.895L471.45 419.892C458.018 428.499 423.328 430.847 407.809 430.847C389.03 430.847 371.164 428.369 360.861 422.501V404.504ZM480.709 367.467L468.45 355.078L480.709 342.819L492.968 355.078L480.709 367.467ZM503.333 404.765H532.285V419.762C532.285 423.544 530.328 425.5 526.546 425.5H497.595V410.503C497.595 406.721 499.682 404.765 503.333 404.765ZM532.243 404.765H561.194V419.762C561.194 423.544 559.238 425.5 555.456 425.5H526.505V410.503C526.505 406.721 528.591 404.765 532.243 404.765ZM561.152 404.765H590.103V419.762C590.103 423.544 588.147 425.5 584.365 425.5H555.414V410.503C555.414 406.721 557.501 404.765 561.152 404.765ZM595.93 379.204C599.712 355.861 612.753 344.124 660.484 324.432V347.645L606.885 368.25C632.706 370.727 649.79 370.467 675.872 370.467H713.691C739.121 370.467 748.641 377.9 748.641 391.724C748.641 424.718 694.13 425.5 656.832 425.5H584.324V406.851L589.931 404.765H644.313C684.088 404.765 734.427 405.025 734.427 394.332C734.427 389.898 725.95 389.246 715.387 389.246H675.481C648.616 389.246 630.359 388.202 606.885 387.159L594.756 386.638L595.93 379.204ZM761.023 375.944L775.76 372.162C779.15 385.725 782.28 400.852 782.28 413.893C782.28 434.498 774.325 454.842 746.156 454.842H737.941V436.455H742.896C763.11 436.455 767.805 426.022 767.805 414.024C767.805 404.504 764.805 392.376 761.023 375.944ZM332.756 570.5H312.151V479.212H351.405C373.705 479.212 385.181 490.688 385.181 507.381C385.181 522.639 375.661 531.246 361.055 534.507V535.159C370.705 543.766 379.965 556.155 387.137 570.5H363.663C355.186 553.416 345.797 542.592 333.408 532.029H332.756V570.5ZM332.756 496.035V520.422H350.622C360.664 520.422 363.794 515.075 363.794 507.903C363.794 501.121 360.925 496.035 351.013 496.035H332.756ZM421.249 572.065C405.86 572.065 395.688 561.11 395.688 540.245V535.028C395.688 513.641 406.252 500.991 424.509 500.991C433.116 500.991 439.637 505.686 444.201 511.163H444.853L446.809 502.165H462.067V570.5H446.157L442.506 557.589H441.854L434.029 569.326C429.334 571.152 425.292 572.065 421.249 572.065ZM428.291 555.894C432.595 555.894 438.593 554.068 442.245 552.112V524.726C437.681 519.64 432.725 516.771 426.987 516.771C419.162 516.771 416.163 523.422 416.163 535.028V540.245C416.163 549.765 419.162 555.894 428.291 555.894ZM499.802 570.5H479.849V473.213H499.802V526.943H500.193L522.624 502.556H545.185L518.19 530.594C527.188 536.332 533.057 544.027 538.012 552.634L548.184 570.5H526.145L521.581 562.284C517.408 554.459 512.321 546.504 505.54 542.592L499.802 548.852V570.5ZM578.762 570.5H558.809V502.556H577.588L578.11 514.423H578.631L584.63 504.382C589.064 502.556 594.15 500.991 599.888 500.991C614.755 500.991 621.145 509.989 621.145 526.03V570.5H601.323V526.943C601.323 520.553 598.845 517.423 593.107 517.423C589.064 517.423 582.674 518.988 578.762 520.944V570.5ZM659.274 572.065C643.886 572.065 633.714 561.11 633.714 540.245V535.028C633.714 513.641 644.277 500.991 662.535 500.991C671.142 500.991 677.662 505.686 682.227 511.163H682.879L684.835 502.165H700.093V570.5H684.183L680.531 557.589H679.879L672.055 569.326C667.36 571.152 663.317 572.065 659.274 572.065ZM666.316 555.894C670.62 555.894 676.619 554.068 680.27 552.112V524.726C675.706 519.64 670.75 516.771 665.012 516.771C657.188 516.771 654.188 523.422 654.188 535.028V540.245C654.188 549.765 657.188 555.894 666.316 555.894ZM737.828 570.5H717.875V473.213H737.828V514.423H738.349L744.609 504.121C748.912 502.425 753.607 500.991 759.345 500.991C772.517 500.991 780.211 508.685 780.211 526.03V570.5H760.389V527.073C760.389 520.553 758.041 517.423 752.173 517.423C748.13 517.423 741.74 518.857 737.828 520.944V570.5Z" fill="white"/>
</svg>
